<svg xmlns="http://www.w3.org/2000/svg" xmlns:xlink="http://www.w3.org/1999/xlink" width="500" zoomAndPan="magnify" viewBox="0 0 375 374.999991" height="500" preserveAspectRatio="xMidYMid meet" version="1.0"><defs><g/><clipPath id="7d29375c9d"><path d="M 117 172 L 334 172 L 334 214.765625 L 117 214.765625 Z M 117 172 " clip-rule="nonzero"/></clipPath><clipPath id="ded566cbc7"><path d="M 121 178 L 166 178 L 166 229 L 121 229 Z M 121 178 " clip-rule="nonzero"/></clipPath><clipPath id="811f42916e"><path d="M 121.382812 215.003906 L 147.070312 178.972656 L 166 192.472656 L 140.3125 228.503906 Z M 121.382812 215.003906 " clip-rule="nonzero"/></clipPath></defs><g clip-path="url(#7d29375c9d)"><path fill="#ffffff" d="M 330.261719 177.140625 C 328.824219 176.046875 327.382812 175.5 325.96875 175.328125 C 324.152344 176.773438 322.347656 178.238281 320.53125 179.6875 C 321.324219 179.703125 322.03125 179.757812 322.398438 179.832031 C 324.21875 180.195312 325.921875 181.152344 327.222656 182.480469 C 331.558594 186.898438 330.4375 193.609375 325.136719 196.75 C 316.707031 201.75 304.984375 202.644531 295.429688 202.519531 C 275.644531 202.261719 256.71875 195.625 238.40625 188.699219 C 206.464844 176.613281 167.054688 161.503906 135.28125 182.632812 C 130.070312 186.097656 125.148438 190.539062 121.449219 195.632812 C 117.207031 201.476562 115.578125 211.527344 123.464844 214.738281 C 125.140625 213.363281 126.800781 211.972656 128.519531 210.652344 C 124.917969 209.519531 122.59375 206.605469 121.945312 202.84375 C 120.722656 195.734375 126.21875 190.511719 131.59375 186.925781 C 139.589844 181.582031 148.929688 178.5625 158.40625 177.308594 C 178.179688 174.691406 197.632812 179.730469 216.15625 186.320312 C 236.234375 193.464844 255.867188 202.417969 277.074219 205.683594 C 293.007812 208.140625 315.59375 208.617188 327.871094 196.117188 C 332.785156 191.113281 337.488281 182.640625 330.261719 177.140625 " fill-opacity="1" fill-rule="nonzero"/></g><g fill="#ffffff" fill-opacity="1"><g transform="translate(14.100877, 209.343267)"><g><path d="M 50.257812 24.671875 C 51.476562 27.488281 55.207031 27.261719 54.828125 23.835938 C 53.988281 16.296875 59.394531 -5.027344 62.363281 -25.8125 L 62.441406 -25.8125 C 71.351562 -55.96875 82.164062 -70.054688 92.59375 -69.902344 C 111.9375 -69.597656 102.265625 -24.441406 72.265625 -20.484375 C 71.425781 -20.253906 71.65625 -19.570312 72.339844 -19.570312 C 92.0625 -16.90625 72.265625 21.625 90.464844 22.3125 C 98.535156 22.617188 112.621094 2.664062 125.492188 -17.972656 C 125.414062 -18.808594 124.425781 -18.503906 124.195312 -18.125 C 113.839844 -2.054688 98.230469 20.863281 90.996094 20.863281 C 81.171875 20.863281 93.660156 -13.019531 75.003906 -20.027344 C 108.890625 -24.367188 116.808594 -71.578125 92.671875 -71.273438 C 79.878906 -71.121094 70.96875 -55.054688 63.582031 -35.410156 C 65.5625 -55.054688 63.886719 -71.960938 50.789062 -72.875 C 36.398438 -73.863281 24.367188 -56.425781 24.441406 -38.074219 C 5.636719 -46.144531 -5.332031 -30.6875 2.511719 -17.894531 L 4.492188 -17.894531 C -3.882812 -28.480469 4.492188 -44.925781 24.292969 -37.007812 C 24.59375 -19.644531 31.21875 -12.335938 37.007812 -13.097656 C 42.492188 -13.859375 46.601562 -27.109375 25.964844 -37.691406 C 25.433594 -53.988281 36.777344 -73.253906 50.789062 -71.65625 C 76.453125 -68.761719 44.621094 11.726562 50.257812 24.671875 Z M 37.464844 -14.164062 C 33.125 -13.171875 26.804688 -16.980469 25.738281 -36.398438 C 44.089844 -26.574219 40.96875 -15 37.464844 -14.164062 Z M 37.464844 -14.164062 "/></g></g></g><g fill="#ffffff" fill-opacity="1"><g transform="translate(110.244958, 201.452886)"><g><path d="M 11.421875 -12.410156 C 10.738281 -11.726562 17.667969 -8.148438 17.667969 -8.148438 C 12.410156 -2.054688 11.652344 11.574219 19.796875 11.878906 C 25.355469 12.335938 32.132812 0.304688 44.011719 -17.820312 C 44.394531 -18.351562 43.480469 -18.65625 42.566406 -17.894531 C 31.523438 -0.914062 23.910156 11.117188 20.027344 10.890625 C 14.238281 10.507812 23.148438 -7.15625 20.101562 -8.375 L 13.324219 -12.03125 C 24.367188 -12.714844 27.414062 -25.738281 22.84375 -28.097656 C 17.894531 -30.308594 11.726562 -22.3125 3.503906 -8.527344 C 4.113281 -12.867188 4.722656 -18.125 5.253906 -21.472656 C 30.15625 -49.417969 26.421875 -65.488281 18.730469 -65.183594 C 2.132812 -64.496094 -0.761719 -13.554688 -2.816406 5.710938 C -2.96875 8.375 1.445312 8.832031 1.828125 5.710938 L 3.199219 -6.167969 C 14.164062 -24.746094 19.1875 -28.175781 21.855469 -27.335938 C 26.269531 -25.964844 17.132812 -17.894531 11.421875 -12.410156 Z M 5.484375 -23.453125 C 7.539062 -41.882812 13.402344 -63.660156 18.351562 -64.039062 C 24.824219 -64.574219 28.328125 -50.714844 5.484375 -23.453125 Z M 5.484375 -23.453125 "/></g></g></g><g clip-path="url(#ded566cbc7)"><g clip-path="url(#811f42916e)"><path fill="#000000" d="M 121.382812 215.003906 L 147.070312 178.976562 L 166 192.472656 L 140.3125 228.5 L 121.382812 215.003906 " fill-opacity="1" fill-rule="nonzero"/></g></g><g fill="#ffffff" fill-opacity="1"><g transform="translate(122.563751, 230.025453)"><g><path d="M 9.890625 0 L 7.21875 -3.765625 C 6.914062 -3.722656 6.601562 -3.703125 6.28125 -3.703125 L 3.140625 -3.703125 L 3.140625 0 L 1.90625 0 L 1.90625 -11.6875 L 6.28125 -11.6875 C 7.769531 -11.6875 8.9375 -11.328125 9.78125 -10.609375 C 10.632812 -9.898438 11.0625 -8.925781 11.0625 -7.6875 C 11.0625 -6.769531 10.828125 -5.992188 10.359375 -5.359375 C 9.898438 -4.734375 9.242188 -4.285156 8.390625 -4.015625 L 11.234375 0 Z M 6.25 -4.765625 C 7.40625 -4.765625 8.289062 -5.019531 8.90625 -5.53125 C 9.519531 -6.039062 9.828125 -6.757812 9.828125 -7.6875 C 9.828125 -8.632812 9.519531 -9.359375 8.90625 -9.859375 C 8.289062 -10.367188 7.40625 -10.625 6.25 -10.625 L 3.140625 -10.625 L 3.140625 -4.765625 Z M 6.25 -4.765625 "/></g></g></g><g fill="#ffffff" fill-opacity="1"><g transform="translate(135.806781, 230.025453)"><g><path d="M 9.234375 -3.125 L 2.71875 -3.125 L 1.3125 0 L 0.03125 0 L 5.375 -11.6875 L 6.59375 -11.6875 L 11.9375 0 L 10.640625 0 Z M 8.78125 -4.125 L 5.984375 -10.40625 L 3.171875 -4.125 Z M 8.78125 -4.125 "/></g></g></g><g fill="#ffffff" fill-opacity="1"><g transform="translate(148.949619, 230.025453)"><g><path d="M 11.671875 -11.6875 L 11.671875 0 L 10.65625 0 L 3.140625 -9.484375 L 3.140625 0 L 1.90625 0 L 1.90625 -11.6875 L 2.921875 -11.6875 L 10.453125 -2.203125 L 10.453125 -11.6875 Z M 11.671875 -11.6875 "/></g></g></g><g fill="#ffffff" fill-opacity="1"><g transform="translate(163.69558, 230.025453)"><g><path d="M 3.15625 0.09375 C 2.488281 0.09375 1.867188 -0.046875 1.296875 -0.328125 C 0.734375 -0.617188 0.273438 -1.03125 -0.078125 -1.5625 L 0.65625 -2.40625 C 1.300781 -1.445312 2.140625 -0.96875 3.171875 -0.96875 C 4.617188 -0.96875 5.34375 -1.828125 5.34375 -3.546875 L 5.34375 -10.625 L 1.0625 -10.625 L 1.0625 -11.6875 L 6.5625 -11.6875 L 6.5625 -3.59375 C 6.5625 -2.363281 6.273438 -1.441406 5.703125 -0.828125 C 5.128906 -0.210938 4.28125 0.09375 3.15625 0.09375 Z M 3.15625 0.09375 "/></g></g></g><g fill="#ffffff" fill-opacity="1"><g transform="translate(173.231377, 230.025453)"><g><path d="M 10.171875 -1.0625 L 10.171875 0 L 1.90625 0 L 1.90625 -11.6875 L 9.921875 -11.6875 L 9.921875 -10.625 L 3.140625 -10.625 L 3.140625 -6.46875 L 9.1875 -6.46875 L 9.1875 -5.40625 L 3.140625 -5.40625 L 3.140625 -1.0625 Z M 10.171875 -1.0625 "/></g></g></g><g fill="#ffffff" fill-opacity="1"><g transform="translate(185.572651, 230.025453)"><g><path d="M 10.171875 -1.0625 L 10.171875 0 L 1.90625 0 L 1.90625 -11.6875 L 9.921875 -11.6875 L 9.921875 -10.625 L 3.140625 -10.625 L 3.140625 -6.46875 L 9.1875 -6.46875 L 9.1875 -5.40625 L 3.140625 -5.40625 L 3.140625 -1.0625 Z M 10.171875 -1.0625 "/></g></g></g><g fill="#ffffff" fill-opacity="1"><g transform="translate(197.913924, 230.025453)"><g><path d="M 4.171875 -10.625 L 0.0625 -10.625 L 0.0625 -11.6875 L 9.515625 -11.6875 L 9.515625 -10.625 L 5.40625 -10.625 L 5.40625 0 L 4.171875 0 Z M 4.171875 -10.625 "/></g></g></g><g fill="#ffffff" fill-opacity="1"><g transform="translate(208.668772, 230.025453)"><g/></g></g><g fill="#ffffff" fill-opacity="1"><g transform="translate(214.213445, 230.025453)"><g><path d="M 5.53125 -5.5 L 3.140625 -3.078125 L 3.140625 0 L 1.90625 0 L 1.90625 -11.6875 L 3.140625 -11.6875 L 3.140625 -4.625 L 10 -11.6875 L 11.421875 -11.6875 L 6.359375 -6.390625 L 11.78125 0 L 10.3125 0 Z M 5.53125 -5.5 "/></g></g></g><g fill="#ffffff" fill-opacity="1"><g transform="translate(227.256081, 230.025453)"><g><path d="M 6.609375 0.09375 C 5.097656 0.09375 3.914062 -0.335938 3.0625 -1.203125 C 2.21875 -2.066406 1.796875 -3.332031 1.796875 -5 L 1.796875 -11.6875 L 3.046875 -11.6875 L 3.046875 -5.046875 C 3.046875 -3.679688 3.347656 -2.664062 3.953125 -2 C 4.566406 -1.332031 5.453125 -1 6.609375 -1 C 7.785156 -1 8.675781 -1.332031 9.28125 -2 C 9.894531 -2.664062 10.203125 -3.679688 10.203125 -5.046875 L 10.203125 -11.6875 L 11.40625 -11.6875 L 11.40625 -5 C 11.40625 -3.332031 10.984375 -2.066406 10.140625 -1.203125 C 9.304688 -0.335938 8.128906 0.09375 6.609375 0.09375 Z M 6.609375 0.09375 "/></g></g></g><g fill="#ffffff" fill-opacity="1"><g transform="translate(241.651363, 230.025453)"><g><path d="M 14.046875 -11.6875 L 14.046875 0 L 12.859375 0 L 12.859375 -9.359375 L 8.265625 -1.484375 L 7.6875 -1.484375 L 3.09375 -9.296875 L 3.09375 0 L 1.90625 0 L 1.90625 -11.6875 L 2.921875 -11.6875 L 8 -3.015625 L 13.03125 -11.6875 Z M 14.046875 -11.6875 "/></g></g></g><g fill="#ffffff" fill-opacity="1"><g transform="translate(258.768621, 230.025453)"><g><path d="M 9.234375 -3.125 L 2.71875 -3.125 L 1.3125 0 L 0.03125 0 L 5.375 -11.6875 L 6.59375 -11.6875 L 11.9375 0 L 10.640625 0 Z M 8.78125 -4.125 L 5.984375 -10.40625 L 3.171875 -4.125 Z M 8.78125 -4.125 "/></g></g></g><g fill="#ffffff" fill-opacity="1"><g transform="translate(271.911461, 230.025453)"><g><path d="M 9.890625 0 L 7.21875 -3.765625 C 6.914062 -3.722656 6.601562 -3.703125 6.28125 -3.703125 L 3.140625 -3.703125 L 3.140625 0 L 1.90625 0 L 1.90625 -11.6875 L 6.28125 -11.6875 C 7.769531 -11.6875 8.9375 -11.328125 9.78125 -10.609375 C 10.632812 -9.898438 11.0625 -8.925781 11.0625 -7.6875 C 11.0625 -6.769531 10.828125 -5.992188 10.359375 -5.359375 C 9.898438 -4.734375 9.242188 -4.285156 8.390625 -4.015625 L 11.234375 0 Z M 6.25 -4.765625 C 7.40625 -4.765625 8.289062 -5.019531 8.90625 -5.53125 C 9.519531 -6.039062 9.828125 -6.757812 9.828125 -7.6875 C 9.828125 -8.632812 9.519531 -9.359375 8.90625 -9.859375 C 8.289062 -10.367188 7.40625 -10.625 6.25 -10.625 L 3.140625 -10.625 L 3.140625 -4.765625 Z M 6.25 -4.765625 "/></g></g></g></svg>