<svg xmlns="http://www.w3.org/2000/svg" xmlns:xlink="http://www.w3.org/1999/xlink" width="100" zoomAndPan="magnify" viewBox="0 0 75 74.999997" height="100" preserveAspectRatio="xMidYMid meet" version="1.0"><defs><g/><clipPath id="c02ed4b550"><path d="M 16.011719 7.5 L 32.511719 7.5 L 32.511719 58.5 L 16.011719 58.5 Z M 16.011719 7.5 " clip-rule="nonzero"/></clipPath><clipPath id="ae0a3be644"><path d="M 26.578125 50.695312 L 38.578125 50.695312 L 38.578125 58.195312 L 26.578125 58.195312 Z M 26.578125 50.695312 " clip-rule="nonzero"/></clipPath><clipPath id="eeefb2c984"><path d="M 16 6 L 38 6 L 38 58 L 16 58 Z M 16 6 " clip-rule="nonzero"/></clipPath><clipPath id="2c2b1e43fa"><path d="M 14.652344 7.789062 L 37.09375 6.160156 L 40.789062 57.023438 L 18.347656 58.65625 Z M 14.652344 7.789062 " clip-rule="nonzero"/></clipPath><clipPath id="ce67563b8d"><path d="M 14.652344 7.789062 L 37.09375 6.160156 L 40.789062 57.023438 L 18.347656 58.65625 Z M 14.652344 7.789062 " clip-rule="nonzero"/></clipPath><clipPath id="2081af1ea5"><path d="M 14.652344 7.789062 L 37.09375 6.160156 L 40.789062 57.023438 L 18.347656 58.65625 Z M 14.652344 7.789062 " clip-rule="nonzero"/></clipPath></defs><g fill="#000000" fill-opacity="1"><g transform="translate(17.179688, 56.245201)"><g><path d="M 35.078125 0 C 34.035156 0 33.003906 -0.53125 31.984375 -1.59375 C 30.960938 -2.65625 30.046875 -3.976562 29.234375 -5.5625 C 28.421875 -7.144531 27.472656 -8.863281 26.390625 -10.71875 C 25.304688 -12.570312 24.222656 -14.3125 23.140625 -15.9375 C 22.054688 -17.570312 20.679688 -18.953125 19.015625 -20.078125 C 17.347656 -21.203125 15.570312 -21.804688 13.6875 -21.890625 L 13.6875 -14.125 C 13.6875 -9.625 13.820312 -6.570312 14.09375 -4.96875 C 14.363281 -3.363281 14.75 -2.351562 15.25 -1.9375 C 16.257812 -1.144531 17.804688 -0.75 19.890625 -0.75 L 20.015625 0 L 3.25 0 L 3.375 -0.75 C 5.414062 -0.75 6.914062 -1.125 7.875 -1.875 C 8.664062 -2.5 9.125 -4.539062 9.25 -8 C 9.332031 -9.375 9.375 -11.414062 9.375 -14.125 L 9.375 -29.953125 C 9.375 -34.578125 9.25 -37.640625 9 -39.140625 C 8.75 -40.640625 8.375 -41.578125 7.875 -41.953125 C 6.914062 -42.660156 5.414062 -43.015625 3.375 -43.015625 L 3.25 -43.765625 L 17.765625 -43.765625 C 28.265625 -43.765625 33.515625 -40.222656 33.515625 -33.140625 C 33.515625 -30.097656 32.441406 -27.546875 30.296875 -25.484375 C 28.148438 -23.421875 25.554688 -22.222656 22.515625 -21.890625 C 25.554688 -20.097656 28.367188 -16.800781 30.953125 -12 C 31.953125 -10.125 33.015625 -8.332031 34.140625 -6.625 C 36.597656 -2.707031 39.765625 -0.75 43.640625 -0.75 L 43.765625 0 Z M 13.6875 -42.328125 L 13.6875 -23.140625 L 17.640625 -23.140625 C 20.804688 -23.140625 23.429688 -23.953125 25.515625 -25.578125 C 27.597656 -27.203125 28.640625 -29.617188 28.640625 -32.828125 C 28.640625 -39.160156 25.015625 -42.328125 17.765625 -42.328125 Z M 13.6875 -42.328125 "/></g></g></g><g clip-path="url(#c02ed4b550)"><path fill="#fbf7f7" d="M 16.011719 7.507812 L 32.511719 7.507812 L 32.511719 58.492188 L 16.011719 58.492188 L 16.011719 7.507812 " fill-opacity="1" fill-rule="nonzero"/></g><g clip-path="url(#ae0a3be644)"><path fill="#fbf7f7" d="M 26.578125 50.695312 L 38.578125 50.695312 L 38.578125 58.195312 L 26.578125 58.195312 L 26.578125 50.695312 " fill-opacity="1" fill-rule="nonzero"/></g><g clip-path="url(#eeefb2c984)"><g clip-path="url(#2c2b1e43fa)"><g clip-path="url(#ce67563b8d)"><g clip-path="url(#2081af1ea5)"><path fill="#000000" d="M 30.15625 18.914062 C 30.132812 18.898438 30.117188 18.871094 30.109375 18.839844 C 30.089844 18.738281 30.078125 18.632812 30.066406 18.527344 C 29.734375 17.382812 29.210938 16.292969 28.90625 15.140625 C 28.417969 13.292969 28.425781 11.183594 28.859375 9.332031 C 29.003906 8.710938 29.128906 8.089844 29.320312 7.480469 C 29.351562 7.382812 29.382812 7.207031 29.425781 7.054688 C 29.460938 6.925781 29.511719 6.820312 29.570312 6.753906 C 29.609375 6.714844 29.644531 6.71875 29.671875 6.714844 C 29.707031 6.71875 29.738281 6.734375 29.761719 6.769531 C 29.769531 6.78125 29.78125 6.804688 29.785156 6.835938 C 29.785156 6.855469 29.785156 6.886719 29.785156 6.902344 C 29.789062 7.019531 29.792969 7.132812 29.796875 7.246094 C 29.800781 7.523438 29.828125 7.804688 29.871094 8.078125 C 30 8.875 30.136719 9.699219 30.382812 10.46875 C 30.898438 12.105469 31.011719 13.890625 30.757812 15.585938 C 30.640625 16.363281 30.375 17.078125 30.304688 17.832031 L 30.304688 17.835938 C 30.488281 18.699219 30.632812 19.574219 30.71875 20.457031 C 30.796875 21.285156 30.820312 22.117188 30.765625 22.949219 C 30.746094 23.25 30.714844 23.550781 30.671875 23.847656 C 30.878906 23.410156 31.101562 22.984375 31.332031 22.574219 C 31.636719 22.042969 31.929688 21.464844 32.328125 20.996094 C 32.980469 20.222656 33.753906 19.648438 34.523438 19.015625 C 34.851562 18.75 35.222656 18.542969 35.5625 18.289062 C 35.933594 18.011719 36.285156 17.695312 36.660156 17.417969 C 36.890625 17.246094 37.113281 17.066406 37.339844 16.886719 C 37.410156 16.832031 37.472656 16.785156 37.535156 16.722656 C 37.5625 16.699219 37.59375 16.640625 37.617188 16.617188 C 37.644531 16.59375 37.667969 16.578125 37.6875 16.570312 C 37.726562 16.558594 37.757812 16.566406 37.785156 16.585938 C 37.8125 16.605469 37.839844 16.628906 37.847656 16.683594 C 37.863281 16.769531 37.835938 16.875 37.785156 16.988281 C 37.726562 17.117188 37.636719 17.253906 37.59375 17.339844 C 37.351562 17.855469 37.140625 18.382812 36.875 18.886719 C 36.160156 20.238281 35.308594 21.507812 34.039062 22.398438 C 33.28125 22.929688 32.464844 23.273438 31.769531 23.738281 C 31.140625 24.15625 30.613281 24.679688 30.316406 25.542969 C 29.972656 26.761719 29.46875 27.871094 28.882812 29.003906 C 27.832031 31.035156 26.511719 33.140625 25.40625 36.140625 C 25.019531 37.195312 24.726562 38.261719 24.527344 39.328125 C 24.542969 39.296875 24.558594 39.261719 24.574219 39.230469 C 25.054688 38.253906 25.875 36.949219 26.722656 36.265625 C 27.730469 35.457031 29.320312 34.785156 30.449219 34.097656 C 30.90625 33.820312 31.296875 33.480469 31.683594 33.117188 C 31.769531 33.035156 31.875 32.902344 31.988281 32.789062 C 32.078125 32.699219 32.171875 32.628906 32.257812 32.59375 C 32.316406 32.574219 32.355469 32.589844 32.378906 32.601562 C 32.414062 32.621094 32.441406 32.65625 32.441406 32.714844 C 32.441406 32.730469 32.433594 32.761719 32.417969 32.789062 C 32.398438 32.820312 32.351562 32.878906 32.335938 32.914062 C 32.285156 33.007812 32.234375 33.097656 32.1875 33.191406 C 32.039062 33.472656 31.929688 33.773438 31.800781 34.058594 C 31.753906 34.171875 31.695312 34.285156 31.648438 34.394531 C 31.660156 34.414062 31.664062 34.449219 31.644531 34.46875 C 31.609375 34.507812 31.582031 34.542969 31.546875 34.582031 C 31.324219 35.003906 31.085938 35.402344 30.808594 35.789062 C 30.824219 35.8125 30.828125 35.84375 30.804688 35.863281 C 30.667969 36.042969 30.519531 36.21875 30.367188 36.378906 C 30.316406 36.441406 30.261719 36.507812 30.207031 36.574219 C 29.203125 37.8125 27.957031 38.539062 26.609375 39.335938 C 26.140625 39.613281 25.636719 39.863281 25.199219 40.1875 C 24.78125 40.5 24.429688 40.875 24.253906 41.414062 C 24.238281 41.460938 24.222656 41.511719 24.214844 41.558594 C 24.011719 44.121094 24.269531 46.707031 24.855469 49.285156 C 24.855469 47.15625 26.007812 44.773438 27.164062 43.164062 C 27.1875 43.132812 27.210938 43.097656 27.234375 43.066406 C 27.699219 42.421875 28.234375 41.875 28.84375 41.371094 C 28.882812 41.335938 28.941406 41.269531 29.003906 41.214844 C 29.058594 41.164062 29.113281 41.117188 29.167969 41.101562 C 29.214844 41.085938 29.261719 41.082031 29.300781 41.097656 C 29.34375 41.109375 29.386719 41.140625 29.417969 41.195312 C 29.789062 41.917969 29.695312 43.027344 29.355469 44.183594 C 28.855469 45.886719 27.839844 47.6875 27.113281 48.449219 C 26.777344 48.800781 26.285156 49.078125 25.867188 49.402344 C 25.523438 49.671875 25.234375 49.96875 25.148438 50.386719 C 25.847656 52.628906 27.472656 56.058594 28.925781 57.425781 C 28.996094 57.496094 29 57.609375 28.933594 57.679688 C 28.878906 57.738281 28.800781 57.753906 28.730469 57.722656 C 28.722656 57.734375 28.707031 57.734375 28.699219 57.738281 C 28.714844 57.753906 28.722656 57.765625 28.738281 57.777344 C 28.761719 57.804688 28.761719 57.839844 28.738281 57.863281 C 28.714844 57.890625 28.679688 57.886719 28.652344 57.867188 C 28.488281 57.703125 28.34375 57.527344 28.203125 57.347656 C 28.1875 57.332031 28.183594 57.304688 28.195312 57.285156 C 28.09375 57.164062 27.988281 57.039062 27.898438 56.914062 C 27.878906 56.886719 27.886719 56.847656 27.910156 56.832031 C 27.914062 56.832031 27.914062 56.824219 27.921875 56.824219 C 27.351562 56.066406 26.78125 55.085938 26.273438 54.0625 C 26.246094 54.054688 26.21875 54.027344 26.207031 53.996094 C 26.148438 53.835938 26.085938 53.679688 26.015625 53.53125 C 25.996094 53.492188 25.980469 53.449219 25.957031 53.40625 C 25.851562 53.1875 25.738281 52.972656 25.609375 52.761719 C 25.414062 52.667969 25.195312 52.625 24.976562 52.59375 C 24.730469 52.5625 24.484375 52.539062 24.25 52.480469 C 22.398438 52 20.949219 51.367188 19.609375 49.925781 C 19.457031 49.761719 18.636719 48.730469 18.421875 48.230469 C 18.375 48.121094 18.355469 48.027344 18.363281 47.964844 C 18.367188 47.910156 18.394531 47.871094 18.425781 47.84375 C 18.480469 47.792969 18.566406 47.765625 18.675781 47.757812 C 18.804688 47.746094 18.972656 47.773438 19.164062 47.8125 C 19.859375 47.972656 20.859375 48.417969 21.078125 48.53125 C 22.675781 49.347656 24.214844 50.449219 25.3125 51.886719 L 25.308594 51.878906 C 25.179688 51.554688 25.054688 51.226562 24.945312 50.894531 C 24.855469 50.621094 24.765625 50.34375 24.6875 50.066406 C 24.664062 49.980469 24.640625 49.890625 24.613281 49.796875 C 24.601562 49.75 24.59375 49.707031 24.582031 49.65625 C 24.570312 49.601562 24.554688 49.550781 24.542969 49.496094 C 24.503906 49.324219 24.464844 49.15625 24.429688 48.988281 C 24.347656 48.597656 24.269531 48.203125 24.199219 47.804688 C 24.167969 47.613281 24.136719 47.417969 24.101562 47.230469 C 24.085938 47.175781 24.070312 47.125 24.050781 47.066406 C 24.042969 47.066406 24.035156 47.0625 24.027344 47.058594 C 20.835938 45.839844 18.179688 43.378906 17.355469 39.957031 C 17.308594 39.761719 16.964844 38.488281 16.855469 37.878906 C 16.824219 37.699219 16.820312 37.574219 16.835938 37.519531 C 16.851562 37.457031 16.890625 37.425781 16.933594 37.414062 C 16.96875 37.402344 17.011719 37.398438 17.058594 37.421875 C 17.089844 37.4375 17.132812 37.46875 17.175781 37.503906 C 17.21875 37.542969 17.261719 37.589844 17.296875 37.609375 C 17.519531 37.753906 17.726562 37.90625 17.960938 38.023438 C 18.699219 38.386719 19.304688 38.773438 19.910156 39.339844 C 22.117188 41.414062 23.945312 46.019531 23.945312 46.019531 C 23.644531 43.296875 23.769531 40.582031 24.464844 37.910156 C 24.464844 37.90625 24.464844 37.90625 24.460938 37.902344 C 24.40625 37.089844 24.046875 36.324219 23.585938 35.59375 C 23.117188 34.855469 22.554688 34.152344 22.101562 33.5 C 21.304688 32.355469 20.757812 31.074219 20.507812 29.699219 C 20.371094 28.933594 20.332031 28.167969 20.347656 27.390625 C 20.355469 27.15625 20.367188 26.925781 20.375 26.695312 C 20.378906 26.597656 20.382812 26.503906 20.390625 26.40625 C 20.390625 26.402344 20.382812 26.332031 20.378906 26.304688 C 20.378906 26.269531 20.386719 26.246094 20.398438 26.226562 C 20.417969 26.199219 20.441406 26.179688 20.46875 26.171875 C 20.496094 26.160156 20.53125 26.160156 20.574219 26.179688 C 20.625 26.207031 20.679688 26.265625 20.726562 26.351562 C 20.792969 26.480469 20.847656 26.683594 20.894531 26.765625 C 21.101562 27.148438 21.359375 27.539062 21.632812 27.878906 C 22.144531 28.507812 22.640625 29.039062 22.988281 29.785156 C 23.78125 31.496094 23.828125 33.289062 24.125 35.117188 C 24.242188 35.839844 24.476562 36.523438 24.65625 37.230469 C 24.78125 36.8125 24.921875 36.394531 25.070312 35.980469 C 25.871094 33.804688 26.78125 32.097656 27.625 30.550781 C 27.625 30.539062 27.625 30.519531 27.625 30.507812 C 27.816406 29.503906 27.59375 28.582031 27.222656 27.691406 C 26.847656 26.785156 26.316406 25.917969 25.890625 25.050781 C 25.292969 23.820312 25.097656 22.199219 25.3125 20.863281 C 25.378906 20.457031 25.503906 19.664062 25.703125 19.289062 C 25.710938 19.253906 25.710938 19.226562 25.71875 19.195312 C 25.726562 19.164062 25.753906 19.144531 25.785156 19.144531 C 25.820312 19.152344 25.839844 19.183594 25.835938 19.214844 C 25.863281 19.21875 25.886719 19.234375 25.914062 19.257812 C 25.921875 19.273438 25.9375 19.292969 25.945312 19.328125 C 25.953125 19.359375 25.953125 19.425781 25.964844 19.457031 C 25.988281 19.550781 26.027344 19.636719 26.054688 19.726562 C 26.144531 19.996094 26.265625 20.234375 26.394531 20.488281 C 26.773438 21.242188 27.3125 21.890625 27.550781 22.71875 C 27.988281 24.226562 27.707031 25.710938 27.710938 27.242188 C 27.710938 28.136719 27.949219 28.996094 27.988281 29.882812 C 28.1875 29.519531 28.378906 29.15625 28.5625 28.800781 C 30.128906 25.78125 31.101562 22.929688 29.867188 17.527344 Z M 25.234375 52.316406 C 25.234375 52.316406 25.230469 52.320312 25.230469 52.320312 C 25.238281 52.324219 25.246094 52.324219 25.253906 52.328125 Z M 19.496094 49.398438 C 19.640625 49.578125 19.757812 49.71875 19.800781 49.777344 C 21.109375 51.175781 22.523438 51.789062 24.324219 52.257812 C 24.394531 52.277344 24.464844 52.289062 24.539062 52.304688 C 24.429688 52.265625 24.316406 52.222656 24.210938 52.179688 C 23.832031 52.039062 23.453125 51.910156 23.082031 51.734375 C 22.023438 51.238281 20.917969 50.660156 20.011719 49.90625 C 19.824219 49.75 19.660156 49.566406 19.496094 49.398438 Z M 19.144531 48.679688 C 19.433594 48.964844 19.75 49.222656 20.070312 49.464844 C 20.8125 50.03125 21.609375 50.496094 22.417969 50.96875 C 23.195312 51.417969 24.03125 51.925781 24.898438 52.21875 C 24.65625 52.109375 24.421875 51.960938 24.1875 51.847656 C 23.789062 51.648438 23.386719 51.460938 23 51.234375 C 22.5 50.9375 22.027344 50.585938 21.546875 50.261719 C 20.972656 49.875 20.40625 49.46875 19.824219 49.089844 C 19.601562 48.957031 19.359375 48.832031 19.144531 48.679688 Z M 25.105469 52.015625 C 24.03125 50.625 22.53125 49.5625 20.976562 48.765625 C 20.765625 48.65625 19.796875 48.222656 19.121094 48.066406 C 18.957031 48.027344 18.8125 48.007812 18.707031 48.015625 C 18.695312 48.015625 18.6875 48.015625 18.679688 48.015625 C 18.8125 48.042969 18.9375 48.101562 19.070312 48.136719 C 19.21875 48.175781 19.375 48.195312 19.523438 48.242188 C 19.929688 48.382812 20.308594 48.632812 20.691406 48.832031 C 20.980469 48.988281 21.285156 49.121094 21.5625 49.292969 C 22.035156 49.582031 22.46875 49.929688 22.914062 50.261719 C 23.402344 50.632812 23.902344 50.992188 24.386719 51.378906 C 24.636719 51.585938 24.863281 51.804688 25.105469 52.015625 Z M 18.71875 48.148438 C 18.746094 48.175781 18.773438 48.199219 18.796875 48.222656 C 19.027344 48.34375 19.273438 48.433594 19.503906 48.554688 C 19.730469 48.671875 19.945312 48.820312 20.171875 48.953125 C 20.414062 49.09375 20.671875 49.214844 20.914062 49.363281 C 21.441406 49.6875 21.941406 50.070312 22.460938 50.417969 C 23.238281 50.933594 24.03125 51.4375 24.828125 51.925781 C 24.660156 51.773438 24.488281 51.617188 24.3125 51.476562 C 23.832031 51.09375 23.335938 50.730469 22.84375 50.363281 C 22.40625 50.035156 21.972656 49.6875 21.503906 49.402344 C 21.222656 49.230469 20.921875 49.097656 20.636719 48.945312 C 20.265625 48.746094 19.890625 48.496094 19.488281 48.363281 C 19.34375 48.3125 19.191406 48.296875 19.042969 48.257812 C 18.933594 48.230469 18.824219 48.183594 18.71875 48.148438 Z M 19.121094 48.507812 C 19.355469 48.691406 19.640625 48.832031 19.890625 48.988281 C 20.472656 49.367188 21.039062 49.773438 21.609375 50.160156 C 22.089844 50.484375 22.5625 50.839844 23.0625 51.128906 C 23.441406 51.351562 23.839844 51.539062 24.238281 51.734375 C 24.359375 51.792969 24.476562 51.859375 24.597656 51.925781 C 23.851562 51.46875 23.113281 51 22.390625 50.519531 C 21.875 50.175781 21.378906 49.796875 20.84375 49.472656 C 20.605469 49.324219 20.351562 49.203125 20.105469 49.0625 C 19.886719 48.929688 19.671875 48.78125 19.441406 48.667969 C 19.339844 48.609375 19.226562 48.558594 19.121094 48.507812 Z M 19.164062 48.871094 C 19.28125 49.003906 19.40625 49.136719 19.53125 49.257812 C 19.714844 49.445312 19.886719 49.648438 20.089844 49.8125 C 20.988281 50.558594 22.082031 51.132812 23.132812 51.625 C 23.390625 51.746094 23.648438 51.84375 23.910156 51.945312 C 23.371094 51.675781 22.847656 51.367188 22.355469 51.082031 C 21.542969 50.609375 20.742188 50.136719 19.996094 49.570312 C 19.707031 49.351562 19.425781 49.121094 19.164062 48.871094 Z M 29.050781 41.671875 C 28.71875 42.199219 28.476562 42.820312 28.167969 43.34375 C 27.003906 45.324219 25.984375 47.417969 25.304688 49.621094 C 26.226562 47.960938 27.007812 46.191406 27.839844 44.484375 C 28.296875 43.542969 28.828125 42.683594 29.050781 41.671875 Z M 27.566406 43.066406 C 27.527344 43.117188 27.488281 43.167969 27.449219 43.222656 C 27.425781 43.257812 27.402344 43.289062 27.375 43.324219 C 26.207031 44.949219 25.03125 47.394531 25.121094 49.53125 C 25.261719 48.773438 25.527344 48.046875 25.75 47.304688 C 26.183594 45.886719 26.722656 44.355469 27.566406 43.066406 Z M 29.238281 41.390625 C 29.230469 41.402344 29.226562 41.40625 29.21875 41.417969 C 29.035156 42.566406 28.449219 43.5 27.941406 44.535156 C 27.195312 46.0625 26.496094 47.640625 25.695312 49.144531 C 26.878906 47.414062 28.0625 45.574219 28.695312 43.578125 C 28.929688 42.859375 29.195312 42.152344 29.238281 41.390625 Z M 28.90625 41.671875 C 27.300781 43.105469 26.472656 45.332031 25.871094 47.34375 C 25.6875 47.949219 25.476562 48.542969 25.324219 49.15625 C 26.003906 47.097656 26.972656 45.140625 28.0625 43.277344 C 28.359375 42.773438 28.597656 42.1875 28.90625 41.671875 Z M 29.441406 42.445312 C 29.378906 42.882812 29.234375 43.328125 29.136719 43.707031 C 28.84375 44.859375 27.757812 46.96875 26.992188 47.917969 C 26.710938 48.261719 26.425781 48.59375 26.148438 48.933594 C 26.445312 48.726562 26.742188 48.527344 26.960938 48.292969 C 27.664062 47.550781 28.660156 45.785156 29.148438 44.125 C 29.316406 43.535156 29.429688 42.957031 29.441406 42.445312 Z M 29.324219 41.730469 C 29.238281 42.375 29.011719 42.996094 28.8125 43.621094 C 28.214844 45.503906 27.136719 47.257812 26.015625 48.894531 C 26.304688 48.542969 26.605469 48.203125 26.894531 47.84375 C 27.652344 46.910156 28.726562 44.820312 29.011719 43.679688 C 29.097656 43.347656 29.21875 42.972656 29.289062 42.585938 C 29.347656 42.296875 29.371094 42.003906 29.324219 41.730469 Z M 23.871094 46.742188 C 23.871094 46.742188 23.871094 46.746094 23.871094 46.746094 L 23.882812 46.75 Z M 17.765625 40.5 C 17.851562 40.765625 17.945312 41.023438 18.054688 41.28125 C 18.910156 42.710938 20.523438 44.125 21.609375 45.101562 C 22.292969 45.710938 22.839844 46.328125 23.703125 46.640625 C 22.015625 45.671875 20.851562 44.066406 19.554688 42.652344 C 18.898438 41.945312 18.234375 41.296875 17.765625 40.5 Z M 17.335938 38.867188 C 17.457031 39.355469 17.582031 39.8125 17.609375 39.921875 L 17.609375 39.925781 C 18.0625 40.96875 18.867188 41.726562 19.644531 42.566406 C 20.832031 43.859375 21.902344 45.3125 23.367188 46.285156 C 22.773438 45.757812 22.175781 45.222656 21.648438 44.640625 C 20.667969 43.566406 19.863281 42.332031 18.992188 41.160156 C 18.363281 40.3125 17.777344 39.695312 17.335938 38.867188 Z M 17.855469 38.257812 C 18.914062 39.332031 19.652344 40.6875 20.484375 41.945312 C 21.484375 43.46875 22.605469 44.863281 23.78125 46.25 C 23.761719 46.199219 23.742188 46.144531 23.71875 46.085938 C 23.574219 45.960938 23.4375 45.800781 23.304688 45.625 C 22.96875 45.164062 22.679688 44.597656 22.429688 44.261719 C 21.617188 43.167969 20.824219 42.082031 20.113281 40.914062 C 19.613281 40.085938 19.210938 39.265625 18.523438 38.617188 C 18.316406 38.492188 18.101562 38.378906 17.875 38.265625 C 17.867188 38.261719 17.863281 38.261719 17.855469 38.257812 Z M 17.320312 37.933594 C 19.09375 40.597656 20.738281 43.34375 23.023438 45.597656 C 23.222656 45.792969 23.402344 46.007812 23.585938 46.214844 C 22.449219 44.863281 21.363281 43.496094 20.378906 42.011719 C 19.453125 40.609375 18.644531 39.085938 17.375 37.96875 C 17.355469 37.957031 17.339844 37.945312 17.320312 37.933594 Z M 18.390625 41.992188 C 19.324219 43.765625 20.824219 45.171875 22.589844 46.140625 C 22.226562 45.859375 21.898438 45.527344 21.527344 45.191406 C 20.597656 44.359375 19.289062 43.207031 18.390625 41.992188 Z M 17.105469 37.828125 C 17.121094 37.910156 17.136719 38.003906 17.15625 38.113281 C 17.167969 38.167969 17.179688 38.222656 17.191406 38.273438 C 17.636719 39.394531 18.328125 40.074219 19.082031 41.089844 C 19.945312 42.257812 20.753906 43.484375 21.726562 44.5625 C 22.203125 45.085938 22.734375 45.566406 23.265625 46.042969 C 23.15625 45.921875 23.046875 45.800781 22.933594 45.6875 C 20.523438 43.300781 18.820312 40.367188 16.921875 37.558594 Z M 18.9375 38.882812 C 19.445312 39.472656 19.796875 40.160156 20.21875 40.859375 C 20.925781 42.023438 21.714844 43.105469 22.527344 44.195312 C 22.777344 44.53125 23.066406 45.097656 23.402344 45.558594 C 23.460938 45.640625 23.519531 45.71875 23.585938 45.792969 C 23.164062 44.996094 22.660156 44.253906 22.203125 43.484375 C 21.304688 41.949219 20.425781 40.429688 19.25 39.105469 C 19.148438 39.027344 19.042969 38.953125 18.9375 38.882812 Z M 19.832031 39.605469 C 20.777344 40.789062 21.53125 42.097656 22.3125 43.414062 C 22.640625 43.964844 22.988281 44.503906 23.320312 45.058594 C 22.484375 43.039062 21.367188 41.074219 19.832031 39.605469 Z M 31.546875 33.808594 C 30.8125 34.503906 29.871094 34.945312 29.054688 35.535156 C 27.542969 36.621094 26.210938 37.953125 25.160156 39.5 C 24.960938 39.796875 24.707031 40.085938 24.5 40.390625 C 24.492188 40.410156 24.480469 40.425781 24.472656 40.445312 C 24.507812 40.394531 24.546875 40.351562 24.582031 40.304688 C 24.859375 39.949219 25.152344 39.617188 25.441406 39.273438 C 26.597656 37.933594 27.863281 36.765625 29.265625 35.683594 C 30.015625 35.101562 30.929688 34.566406 31.546875 33.808594 Z M 27.519531 36.007812 C 27.292969 36.152344 27.078125 36.304688 26.886719 36.453125 C 26.066406 37.121094 25.269531 38.386719 24.796875 39.335938 C 24.679688 39.570312 24.5625 39.816406 24.453125 40.078125 C 24.671875 39.660156 24.929688 39.261719 25.171875 38.871094 C 25.8125 37.855469 26.59375 36.824219 27.519531 36.007812 Z M 30.640625 35.632812 C 30.34375 35.949219 30.03125 36.246094 29.710938 36.53125 C 28.910156 37.242188 27.972656 37.832031 27.109375 38.457031 C 26.570312 38.847656 26.046875 39.246094 25.546875 39.6875 C 25.828125 39.507812 26.109375 39.328125 26.378906 39.128906 C 27.027344 38.648438 27.644531 38.117188 28.308594 37.660156 C 28.757812 37.347656 29.261719 37.121094 29.714844 36.804688 C 29.828125 36.683594 29.9375 36.558594 30.042969 36.425781 C 30.253906 36.164062 30.457031 35.898438 30.640625 35.632812 Z M 31.320312 34.523438 C 31.222656 34.652344 31.121094 34.777344 31.011719 34.886719 C 30.6875 35.21875 30.3125 35.511719 29.964844 35.820312 C 28.9375 36.742188 27.855469 37.589844 26.769531 38.441406 C 26.34375 38.777344 25.945312 39.128906 25.5625 39.503906 C 26.035156 39.09375 26.523438 38.722656 27.035156 38.351562 C 27.898438 37.730469 28.824219 37.136719 29.625 36.433594 C 30.125 35.992188 30.601562 35.507812 31.046875 35.003906 C 31.144531 34.851562 31.234375 34.6875 31.320312 34.523438 Z M 31.515625 34.023438 C 30.898438 34.710938 30.046875 35.226562 29.339844 35.773438 C 27.949219 36.851562 26.683594 38.007812 25.539062 39.351562 C 25.503906 39.390625 25.46875 39.429688 25.4375 39.460938 C 25.835938 39.070312 26.25 38.695312 26.699219 38.34375 C 27.78125 37.492188 28.863281 36.648438 29.890625 35.730469 C 30.234375 35.421875 30.609375 35.136719 30.929688 34.800781 C 31.136719 34.582031 31.339844 34.3125 31.515625 34.023438 Z M 29.042969 35.152344 C 28.78125 35.289062 28.515625 35.429688 28.261719 35.570312 C 27.046875 36.441406 26.058594 37.699219 25.285156 38.929688 C 25.234375 39.015625 25.179688 39.097656 25.125 39.183594 C 25.15625 39.136719 25.183594 39.09375 25.21875 39.050781 C 26.230469 37.5625 27.578125 36.214844 29.042969 35.152344 Z M 29.324219 37.191406 C 29.003906 37.378906 28.679688 37.550781 28.375 37.757812 C 27.820312 38.136719 27.300781 38.570312 26.773438 38.976562 C 27.691406 38.433594 28.5625 37.90625 29.324219 37.191406 Z M 31.796875 33.363281 C 31.527344 33.613281 31.25 33.851562 30.957031 34.066406 C 30.957031 34.066406 30.960938 34.070312 30.960938 34.070312 C 30.976562 34.101562 30.96875 34.136719 30.9375 34.152344 C 30.414062 34.476562 29.859375 34.726562 29.351562 35.082031 C 28.199219 35.882812 27.109375 36.875 26.191406 37.972656 C 27.023438 37.019531 27.964844 36.164062 28.996094 35.429688 C 29.898438 34.78125 30.964844 34.308594 31.71875 33.460938 C 31.742188 33.429688 31.769531 33.394531 31.796875 33.363281 Z M 20.695312 26.917969 C 20.738281 27.132812 20.789062 27.347656 20.867188 27.550781 C 20.976562 27.839844 21.15625 28.089844 21.25 28.386719 C 21.789062 30.105469 22.355469 31.835938 23.035156 33.507812 C 23.238281 34.011719 23.472656 34.5 23.710938 34.988281 C 23.742188 35.054688 23.777344 35.125 23.816406 35.191406 C 23.671875 34.855469 23.597656 34.492188 23.488281 34.148438 C 23.253906 33.421875 23.007812 32.707031 22.773438 31.980469 C 22.390625 30.78125 22.003906 29.566406 21.5 28.414062 C 21.304688 27.964844 21.03125 27.539062 20.800781 27.109375 C 20.761719 27.039062 20.730469 26.976562 20.695312 26.917969 Z M 21.484375 28.101562 C 21.527344 28.1875 21.566406 28.269531 21.605469 28.359375 C 22.109375 29.515625 22.496094 30.738281 22.882812 31.941406 C 23.117188 32.667969 23.363281 33.382812 23.597656 34.109375 C 23.652344 34.28125 23.699219 34.464844 23.753906 34.644531 C 23.675781 34.285156 23.609375 33.925781 23.515625 33.570312 C 23.28125 32.683594 22.96875 31.8125 22.726562 30.921875 C 22.523438 30.183594 22.363281 29.296875 21.933594 28.640625 C 21.785156 28.460938 21.636719 28.285156 21.484375 28.101562 Z M 20.808594 29.90625 C 21.066406 31.164062 21.582031 32.335938 22.3125 33.390625 C 22.589844 33.789062 22.90625 34.199219 23.214844 34.628906 C 23.085938 34.382812 22.953125 34.136719 22.820312 33.894531 C 22.378906 33.132812 21.957031 32.371094 21.554688 31.585938 C 21.273438 31.035156 21.011719 30.480469 20.808594 29.90625 Z M 20.613281 27.128906 L 20.609375 27.203125 C 20.621094 27.398438 20.640625 27.597656 20.671875 27.789062 C 20.75 28.238281 20.921875 28.640625 21.0625 29.070312 C 21.246094 29.617188 21.402344 30.179688 21.621094 30.71875 C 21.800781 31.171875 22.03125 31.597656 22.214844 32.046875 C 22.519531 32.789062 22.851562 33.511719 23.207031 34.21875 C 23.105469 34 23.011719 33.777344 22.921875 33.550781 C 22.238281 31.878906 21.675781 30.140625 21.132812 28.421875 C 21.039062 28.132812 20.859375 27.878906 20.753906 27.597656 C 20.691406 27.441406 20.648438 27.28125 20.613281 27.117188 Z M 22.335938 29.164062 C 22.5625 29.722656 22.691406 30.339844 22.839844 30.886719 C 23.085938 31.777344 23.394531 32.644531 23.632812 33.535156 C 23.664062 33.648438 23.6875 33.761719 23.714844 33.875 C 23.542969 32.527344 23.375 31.203125 22.78125 29.925781 C 22.65625 29.644531 22.5 29.398438 22.335938 29.164062 Z M 20.605469 28.066406 C 20.617188 28.390625 20.636719 28.710938 20.667969 29.035156 C 20.875 29.90625 21.246094 30.722656 21.660156 31.53125 C 21.992188 32.179688 22.335938 32.804688 22.691406 33.4375 C 22.484375 32.996094 22.289062 32.550781 22.101562 32.09375 C 21.917969 31.644531 21.6875 31.214844 21.503906 30.765625 C 21.289062 30.222656 21.128906 29.660156 20.949219 29.109375 C 20.832031 28.757812 20.695312 28.421875 20.605469 28.066406 Z M 25.480469 22.042969 C 25.484375 23.050781 25.703125 24.109375 26.121094 24.96875 C 26.441406 25.632812 26.828125 26.296875 27.164062 26.980469 C 27.128906 26.875 27.089844 26.773438 27.046875 26.675781 C 26.4375 25.28125 25.730469 23.8125 25.511719 22.292969 C 25.5 22.210938 25.488281 22.125 25.480469 22.042969 Z M 26.824219 21.707031 C 26.917969 22.113281 26.945312 22.535156 26.984375 22.957031 C 27.035156 23.515625 27.121094 24.085938 27.132812 24.648438 C 27.144531 24.964844 27.144531 25.285156 27.15625 25.605469 C 27.234375 25.972656 27.3125 26.34375 27.390625 26.714844 C 27.390625 26.707031 27.390625 26.699219 27.390625 26.695312 C 27.339844 26.066406 27.390625 25.441406 27.382812 24.8125 C 27.382812 23.898438 27.304688 22.945312 27.027344 22.066406 C 26.960938 21.945312 26.890625 21.828125 26.824219 21.707031 Z M 27.335938 22.824219 C 27.460938 23.480469 27.5 24.152344 27.5 24.808594 C 27.503906 25.386719 27.464844 25.964844 27.496094 26.542969 C 27.550781 25.292969 27.691406 24.066406 27.335938 22.824219 Z M 25.625 20.535156 C 25.605469 20.65625 25.585938 20.769531 25.570312 20.871094 C 25.550781 21.335938 25.5625 21.800781 25.628906 22.277344 C 25.84375 23.765625 26.523438 25.203125 27.128906 26.566406 C 27.113281 26.496094 27.105469 26.425781 27.09375 26.347656 C 27.003906 26.054688 26.90625 25.757812 26.8125 25.464844 C 26.535156 24.605469 26.171875 23.761719 25.953125 22.878906 C 25.773438 22.113281 25.636719 21.320312 25.625 20.535156 Z M 25.773438 19.847656 L 25.773438 19.863281 C 25.691406 20.863281 25.835938 21.875 26.074219 22.847656 C 26.285156 23.726562 26.648438 24.566406 26.929688 25.425781 C 26.964844 25.542969 27.003906 25.65625 27.042969 25.773438 C 27.039062 25.722656 27.035156 25.671875 27.039062 25.621094 C 26.796875 24.460938 26.5625 23.296875 26.304688 22.136719 C 26.226562 21.78125 26.160156 21.414062 26.070312 21.058594 C 25.964844 20.660156 25.839844 20.253906 25.777344 19.839844 Z M 25.945312 20.109375 C 26.015625 20.417969 26.105469 20.722656 26.179688 21.027344 C 26.273438 21.382812 26.339844 21.75 26.421875 22.113281 C 26.628906 23.050781 26.820312 23.992188 27.015625 24.929688 C 27.011719 24.835938 27.011719 24.746094 27.007812 24.648438 C 26.992188 24.089844 26.90625 23.523438 26.859375 22.960938 C 26.808594 22.390625 26.777344 21.808594 26.566406 21.285156 C 26.429688 21.066406 26.304688 20.847656 26.1875 20.621094 C 26.109375 20.453125 26.023438 20.285156 25.945312 20.109375 Z M 30.988281 23.984375 C 30.980469 23.996094 30.976562 24 30.96875 24.011719 C 30.9375 24.058594 30.902344 24.109375 30.871094 24.160156 C 30.867188 24.164062 30.863281 24.167969 30.859375 24.171875 C 30.855469 24.183594 30.851562 24.191406 30.847656 24.195312 C 30.90625 24.132812 30.964844 24.074219 31.027344 24.015625 C 31.019531 24.011719 31.007812 24.007812 31 24.003906 C 30.996094 24 30.992188 23.996094 30.988281 23.984375 Z M 34.136719 19.652344 C 33.5625 20.113281 33.003906 20.582031 32.519531 21.152344 C 32.132812 21.613281 31.84375 22.179688 31.550781 22.695312 C 31.363281 23.027344 31.179688 23.375 31.007812 23.726562 L 31.019531 23.707031 C 31.195312 23.445312 31.378906 23.195312 31.5625 22.945312 C 31.675781 22.78125 31.796875 22.621094 31.910156 22.457031 C 32.457031 21.679688 32.945312 20.917969 33.585938 20.214844 C 33.761719 20.027344 33.949219 19.835938 34.136719 19.652344 Z M 36.929688 18.253906 C 36.257812 19.425781 35.367188 20.449219 34.34375 21.332031 C 33.707031 21.875 33.046875 22.410156 32.390625 22.933594 C 32.164062 23.109375 31.933594 23.289062 31.722656 23.484375 C 31.839844 23.410156 31.960938 23.335938 32.082031 23.269531 C 32.195312 23.1875 32.304688 23.105469 32.417969 23.027344 C 33.304688 22.410156 34.132812 21.703125 34.917969 20.960938 C 35.339844 20.5625 35.800781 20.175781 36.148438 19.707031 C 36.332031 19.398438 36.507812 19.085938 36.679688 18.773438 C 36.765625 18.597656 36.847656 18.429688 36.929688 18.253906 Z M 36.519531 18.6875 C 35.71875 19.695312 34.710938 20.53125 33.714844 21.371094 C 33.113281 21.882812 32.550781 22.464844 32.007812 23.035156 C 31.921875 23.125 31.839844 23.207031 31.75 23.296875 C 31.933594 23.136719 32.125 22.988281 32.316406 22.835938 C 32.972656 22.320312 33.632812 21.785156 34.269531 21.242188 C 35.132812 20.496094 35.898438 19.640625 36.519531 18.6875 Z M 37.007812 17.78125 C 36.734375 18.070312 36.449219 18.339844 36.167969 18.617188 C 35.4375 19.347656 34.726562 20.082031 33.972656 20.785156 C 33.453125 21.269531 32.921875 21.765625 32.449219 22.296875 C 32.199219 22.582031 31.957031 22.867188 31.714844 23.152344 C 31.78125 23.085938 31.847656 23.015625 31.914062 22.949219 C 32.464844 22.375 33.023438 21.789062 33.636719 21.273438 C 34.886719 20.226562 36.160156 19.179688 37.007812 17.78125 Z M 37.183594 17.410156 C 36.90625 17.597656 36.621094 17.785156 36.355469 18.003906 C 35.492188 18.742188 34.734375 19.59375 33.945312 20.414062 C 33.148438 21.234375 32.363281 22.101562 31.667969 23.019531 L 31.65625 23.039062 C 31.886719 22.761719 32.125 22.484375 32.363281 22.214844 C 32.835938 21.679688 33.375 21.179688 33.890625 20.691406 C 34.648438 19.988281 35.351562 19.253906 36.082031 18.523438 C 36.453125 18.164062 36.84375 17.808594 37.183594 17.410156 Z M 35.664062 20.425781 C 35.445312 20.636719 35.214844 20.839844 34.996094 21.046875 C 34.351562 21.65625 33.675781 22.242188 32.964844 22.769531 C 33.28125 22.597656 33.601562 22.410156 33.910156 22.191406 C 34.609375 21.703125 35.175781 21.097656 35.664062 20.425781 Z M 35.460938 18.660156 C 35.363281 18.726562 35.265625 18.792969 35.167969 18.859375 C 34.65625 19.3125 34.125 19.8125 33.679688 20.300781 C 33.273438 20.742188 32.929688 21.214844 32.59375 21.695312 C 33.003906 21.226562 33.429688 20.773438 33.863281 20.328125 C 34.394531 19.773438 34.914062 19.203125 35.460938 18.660156 Z M 30.414062 11.53125 C 30.460938 12.136719 30.472656 12.753906 30.445312 13.363281 C 30.402344 14.292969 30.320312 15.203125 30.222656 16.132812 C 30.179688 16.535156 30.136719 16.941406 30.136719 17.347656 C 30.246094 16.757812 30.429688 16.167969 30.523438 15.542969 C 30.726562 14.230469 30.695312 12.851562 30.414062 11.53125 Z M 28.84375 10.90625 C 28.703125 12.300781 28.789062 13.757812 29.140625 15.078125 C 29.304688 15.707031 29.535156 16.316406 29.765625 16.929688 C 29.632812 16.34375 29.515625 15.761719 29.402344 15.175781 C 29.128906 13.746094 28.867188 12.339844 28.84375 10.90625 Z M 29.003906 9.851562 C 29.003906 9.855469 29 9.859375 29 9.863281 C 28.863281 11.660156 29.183594 13.386719 29.523438 15.15625 C 29.632812 15.714844 29.742188 16.273438 29.871094 16.835938 C 29.871094 16.769531 29.875 16.707031 29.878906 16.648438 C 29.78125 16.121094 29.660156 15.589844 29.570312 15.070312 C 29.355469 13.789062 29.222656 12.503906 29.097656 11.210938 C 29.046875 10.71875 29.007812 10.285156 29.003906 9.851562 Z M 30.140625 10.492188 C 30.230469 11.648438 30.210938 12.8125 30.125 13.953125 C 30.082031 14.570312 30.132812 15.257812 30.074219 15.875 C 30.058594 16.027344 30.042969 16.175781 30.027344 16.316406 C 30.035156 16.417969 30.042969 16.515625 30.054688 16.617188 C 30.066406 16.449219 30.082031 16.289062 30.101562 16.125 C 30.203125 15.191406 30.285156 14.285156 30.324219 13.359375 C 30.367188 12.449219 30.328125 11.550781 30.1875 10.648438 C 30.175781 10.613281 30.167969 10.582031 30.15625 10.550781 C 30.152344 10.53125 30.144531 10.511719 30.140625 10.492188 Z M 29.550781 7.601562 C 29.308594 9.296875 29.417969 11.050781 29.578125 12.738281 C 29.664062 13.667969 29.742188 14.582031 29.863281 15.503906 C 29.859375 15.449219 29.859375 15.398438 29.855469 15.34375 C 29.808594 14.492188 29.773438 13.652344 29.761719 12.792969 C 29.742188 11.242188 29.632812 9.171875 29.550781 7.601562 Z M 29.726562 8.667969 C 29.796875 10.035156 29.867188 11.574219 29.882812 12.792969 C 29.894531 13.644531 29.929688 14.488281 29.976562 15.335938 C 29.980469 15.371094 29.984375 15.410156 29.984375 15.445312 C 30 14.945312 29.972656 14.421875 30.011719 13.9375 C 30.109375 12.574219 30.117188 11.160156 29.953125 9.78125 C 29.863281 9.417969 29.792969 9.042969 29.726562 8.667969 Z M 29.355469 8.292969 C 29.277344 8.609375 29.210938 8.925781 29.132812 9.238281 C 29.097656 9.894531 29.148438 10.484375 29.21875 11.191406 C 29.339844 12.460938 29.46875 13.722656 29.675781 14.976562 C 29.589844 14.234375 29.523438 13.496094 29.457031 12.75 C 29.324219 11.289062 29.222656 9.769531 29.355469 8.292969 Z M 29.355469 8.292969 " fill-opacity="1" fill-rule="evenodd"/></g></g></g></g></svg>